# AST/ASF file generated using VICON BodyLanguage
# -----------------------------------------------
:version 1.10
:name VICON
:units
  mass 1.0
  length 0.45
  angle deg
:documentation
   .ast/.asf automatically generated from VICON data using
   VICON BodyBuilder and BodyLanguage model FoxedUp or BRILLIANT.MOD
:root
   order TX TY TZ RX RY RZ
   axis XYZ
   position 0 0 0  
   orientation 0 0 0 
:bonedata
  begin
     id 1 
     name lhipjoint
     direction 0.660183 -0.676772 0.325788 
     length 2.75133 
     axis 0 0 0  XYZ
  end
  begin
     id 2 
     name lfemur
     direction 0.34202 -0.939693 0  
     length 7.70317  
     axis 0 0 20  XYZ
    dof rx ry rz
    limits (-160.0 20.0)
           (-70.0 70.0)
           (-60.0 70.0)
  end
  begin
     id 3 
     name ltibia
     direction 0.342105 -0.939662 0   
     length 7.18701   
     axis 0 0 20   XYZ
    dof rx
    limits (-10.0 170.0)
  end
  begin
     id 4 
     name lfoot
     direction 0.14163 -0.389126 0.910232   
     length 2.41719   
     axis -90 7.62852e-016 20   XYZ
    dof rx rz
    limits (-45.0 90.0)
           (-70.0 20.0)
  end
  begin
     id 5 
     name ltoes
     direction 1.53533e-011 -4.21926e-011 1   
     length 1.18611   
     axis -90 7.62852e-016 20   XYZ
    dof rx
    limits (-90.0 20.0)
  end
  begin
     id 6 
     name rhipjoint
     direction -0.6658 -0.67229 0.323631   
     length 2.76968  
     axis 0 0 0  XYZ 
  end
  begin
     id 7 
     name rfemur
     direction -0.34202 -0.939693 0   
     length 7.92547   
     axis 0 0 -20   XYZ
    dof rx ry rz
    limits (-160.0 20.0)
           (-70.0 70.0)
           (-70.0 60.0)
  end
  begin
     id 8 
     name rtibia
     direction -0.342022 -0.939692 0   
     length 7.22641   
     axis 0 0 -20   XYZ
    dof rx
    limits (-10.0 170.0)
 end
 begin
     id 9 
     name rfoot
     direction -0.105675 -0.29034 0.951071   
     length 2.48149  
     axis -90 -7.62852e-016 -20   XYZ
    dof rx rz
    limits (-45.0 90.0)
           (-20.0 70.0)
  end
  begin
     id 10 
     name rtoes
     direction -1.5349e-011 -4.21859e-011 1   
     length 1.23343   
     axis -90 -7.62852e-016 -20   XYZ
    dof rx
    limits (-90.0 20.0)
  end
  begin
     id 11 
     name lowerback
     direction 0.0104173 0.993624 -0.112266   
     length 2.00527   
     axis 0 0 0   XYZ
    dof rx ry rz
    limits (-20.0 45.0)
           (-30.0 30.0)
           (-30.0 30.0)
  end
  begin
     id 12 
     name upperback
     direction 0.00733149 0.999856 -0.0152913   
     length 2.01385   
     axis 0 0 0   XYZ
    dof rx ry rz
    limits (-20.0 45.0)
           (-30.0 30.0)
           (-30.0 30.0)
  end
  begin
     id 13 
     name thorax
     direction 0.0026304 0.999318 0.036841   
     length 2.03734   
     axis 0 0 0   XYZ
    dof rx ry rz
    limits (-20.0 45.0)
           (-30.0 30.0)
           (-30.0 30.0)
  end
  begin
     id 14 
     name lowerneck
     direction 0.0293154 0.998757 0.0403082   
     length 1.65303   
     axis 0 0 0   XYZ
    dof rx ry rz
    limits (-20.0 45.0)
           (-30.0 30.0)
           (-30.0 30.0)
  end
  begin
     id 15 
     name upperneck
     direction -0.0376619 0.998184 -0.0470083   
     length 1.60926   
     axis 0 0 0   XYZ
    dof rx ry rz
    limits (-20.0 45.0)
           (-30.0 30.0)
           (-30.0 30.0)
  end
  begin
     id 16
     name head
     direction -0.0170133 0.999635 -0.0209778  
     length 1.73625  
     axis 0 0 0   XYZ
    dof rx ry rz
    limits (-20.0 45.0)
           (-30.0 30.0)
           (-30.0 30.0)
  end
  begin
     id 17 
     name lclavicle
     direction 0.919857 0.39181 -0.0186333  
     length 3.75313  
     axis 0 0 0   XYZ
    dof ry rz
    limits (-20.0 10.0)
           (0.0 20.0)
  end
  begin
     id 18 
     name lhumerus
     direction 1 -4.48988e-011 1.44029e-027   
     length 5.49313   
     axis 180 -30 -90   XYZ
    dof rx ry rz
    limits (-60.0 90.0)
           (-90.0 90.0)
           (-90.0 90.0)
  end
  begin
     id 19
     name lradius
     direction 1 -4.48924e-011 7.46281e-027   
     length 3.29037   
     axis 180 -30 -90   XYZ
    dof rx
    limits (-10.0 170.0)
  end
  begin
     id 20
     name lwrist
     direction 1 -4.48955e-011 2.19879e-026   
     length 1.64519   
     axis -1.34358e-014 90 90   XYZ
    dof ry
    limits (-180.0 0.0)
 end
  begin
     id 21 
     name lhand
     direction 1 -4.48978e-011 4.39747e-026   
     length 0.729656   
     axis -2.80598e-014 90 90   XYZ
    dof rx rz
    limits (-90.0 90.0)
           (-45.0 45.0)
  end
  begin
     id 22 
     name lfingers
     direction 1 -4.49071e-011 8.79411e-026   
     length 0.588268   
     axis -5.61193e-014 90 90   XYZ
    dof rx
    limits (0.0 90.0)
  end
  begin
     id 23
     name lthumb
     direction 0.707107 -6.34817e-011 0.707107   
     length 0.844638   
     axis -90 45 -9.86923e-015   XYZ
    dof rx rz
    limits (-45.0 45.0)
           (-45.0 45.0)
  end
  begin
     id 24 
     name rclavicle
     direction -0.919898 0.388279 0.0550233   
     length 3.7171  
     axis 0 0 0   XYZ 
    dof ry rz
    limits (-10.0 20.0)
           (-20.0 0.0)
  end
  begin
     id 25 
     name rhumerus
     direction -1 -4.48968e-011 9.98372e-028  
     length 5.23684   
     axis 180 30 90   XYZ
    dof rx ry rz
    limits (-90.0 60.0)
           (-90.0 90.0)
           (-90.0 90.0)
  end
  begin
     id 26 
     name rradius
     direction -1 -4.48956e-011 1.01023e-026   
     length 3.38251   
     axis 180 30 90   XYZ
    dof rx
    limits (-10.0 170.0)
  end
  begin
     id 27 
     name rwrist
     direction -1 -4.4892e-011 2.19886e-026   
     length 1.69126   
     axis -1.34358e-014 -90 -90   XYZ
    dof ry
    limits (-180.0 0.0)
  end
  begin
     id 28
     name rhand
     direction -1 -4.49024e-011 4.39727e-026   
     length 0.691454   
     axis -2.80598e-014 -90 -90   XYZ
    dof rx rz
    limits (-90.0 90.0)
           (-45.0 45.0)
  end
  begin
     id 29
     name rfingers
     direction -1 -4.49097e-011 8.79388e-026   
     length 0.557468   
     axis -5.61193e-014 -90 -90   XYZ
    dof rx
    limits (0.0 90.0)
  end
  begin
     id 30
     name rthumb
     direction -0.707107 -6.34938e-011 0.707107   
     length 0.800416   
     axis -90 -45 9.86923e-015   XYZ
    dof rx rz
    limits (-45.0 45.0)
           (-45.0 45.0)
  end
:hierarchy
  begin
    root lhipjoint rhipjoint lowerback
    lhipjoint lfemur
    lfemur ltibia
    ltibia lfoot
    lfoot ltoes
    rhipjoint rfemur
    rfemur rtibia
    rtibia rfoot
    rfoot rtoes
    lowerback upperback
    upperback thorax
    thorax lowerneck lclavicle rclavicle
    lowerneck upperneck
    upperneck head
    lclavicle lhumerus
    lhumerus lradius
    lradius lwrist
    lwrist lhand lthumb
    lhand lfingers
    rclavicle rhumerus
    rhumerus rradius
    rradius rwrist
    rwrist rhand rthumb
    rhand rfingers
  end

#!OML:ASF H:\BabyWalks\Project 1\Capture day 1\Session 1\baby.ASF
:FULLY-SPECIFIED
:DEGREES
19
root -31.9066 17.7881 -21.1167 -90.2366 87.8154 -100.469
lowerback 15.7754 -3.67693 -1.30525
upperback 7.54873 -4.44504 3.64526
thorax -0.390582 -2.13533 5.26142
lowerneck -5.98823 1.71739 1.71677
upperneck -6.86245 2.09927 -7.55415
head -1.03183 1.15571 -2.68171
rclavicle -4.24902e-014 1.75924e-014
rhumerus -53.1337 18.0889 -89.5152
rradius 43.4649
rwrist 0.75879
rhand -7.52521 -15.7288
rfingers 7.12502
rthumb 18.3656 -44.8818
lclavicle -4.24902e-014 1.75924e-014
lhumerus -35.9467 -2.13164 77.5213
lradius 67.7475
lwrist 7.20027
lhand -11.7568 6.64441
lfingers 7.12502
lthumb 14.2913 36.1326
rfemur -23.0581 12.256 20.6792
rtibia 30.7837
rfoot -19.8281 -2.19262
rtoes -3.80121
lfemur -9.36513 -1.34549 -14.626
ltibia 40.6645
lfoot -7.18312 -23.0968
ltoes 15.7466
20
root -31.788 17.746 -21.0916 -98.2549 87.5049 -108.095
lowerback 16.0191 -3.68536 -0.798456
upperback 7.65441 -4.35453 3.88047
thorax -0.435596 -2.07237 5.22551
lowerneck -5.80889 1.65424 1.90285
upperneck -7.01873 1.98753 -7.94642
head -1.11321 1.10828 -2.8548
rclavicle -4.28381e-014 4.96962e-015
rhumerus -52.7733 17.7941 -89.1055
rradius 43.1646
rwrist 1.00993
rhand -7.29768 -15.7799
rfingers 7.12502
rthumb 18.5845 -44.9121
lclavicle -4.28381e-014 4.96962e-015
lhumerus -36.2028 -1.98608 78.0227
lradius 66.6834
lwrist 6.9362
lhand -12.0007 6.79115
lfingers 7.12502
lthumb 14.0564 36.2958
rfemur -22.4109 12.2977 21.2686
rtibia 31.4902
rfoot -20.5525 -2.82575
rtoes -5.3954
lfemur -10.2023 -0.943454 -13.9902
ltibia 43.3112
lfoot -5.21849 -23.838
ltoes 15.2931
21
root -31.6672 17.7072 -21.0659 -102.342 87.0864 -111.769
lowerback 16.276 -3.66884 -0.253698
upperback 7.77291 -4.22012 4.13944
thorax -0.47739 -1.98593 5.18692
lowerneck -5.62887 1.60103 2.08916
upperneck -7.16061 1.89059 -8.29313
head -1.1909 1.06769 -3.01336
rclavicle 5.66536e-014 1.59028e-015
rhumerus -52.3769 17.5277 -88.6875
rradius 42.8525
rwrist 1.27276
rhand -7.12293 -15.8447
rfingers 7.12502
rthumb 18.7526 -44.9608
lclavicle 5.66536e-014 1.59028e-015
lhumerus -36.4997 -1.84827 78.5515
lradius 65.5274
lwrist 6.61039
lhand -12.3039 7.06101
lfingers 7.12502
lthumb 13.7642 36.5857
rfemur -21.7042 12.3941 21.9633
rtibia 32.0333
rfoot -21.1647 -3.41618
rtoes -6.33013
lfemur -11.0418 -0.541344 -13.2255
ltibia 45.9684
lfoot -3.14533 -24.4586
ltoes 14.8698
22
root -31.5451 17.6707 -21.0471 -106.202 86.5817 -115.34
lowerback 16.3903 -3.70263 0.4326
upperback 7.85833 -4.1345 4.40054
thorax -0.484475 -1.92077 5.06915
lowerneck -5.46 1.55995 2.27188
upperneck -7.26929 1.81274 -8.59327
head -1.25621 1.03516 -3.15547
rclavicle 3.81667e-014 -1.98785e-014
rhumerus -51.9516 17.2909 -88.2617
rradius 42.5379
rwrist 1.5568
rhand -7.01673 -15.9224
rfingers 7.12502
rthumb 18.8547 -45.0286
lclavicle 3.81667e-014 -1.98785e-014
lhumerus -36.8388 -1.72993 79.1069
lradius 64.2874
lwrist 6.20975
lhand -12.6579 7.48315
lfingers 7.12502
lthumb 13.423 37.0307
rfemur -21.0558 12.2804 22.6996
rtibia 32.4338
rfoot -21.7058 -3.96717
rtoes -7.08021
lfemur -12.0762 -0.312421 -12.4173
ltibia 48.6132
lfoot -1.09231 -24.8714
ltoes 14.5347
23
root -31.4214 17.6359 -21.0306 -108.124 86.0707 -117.008
lowerback 16.4627 -3.72 1.11509
upperback 7.9349 -4.02884 4.661
thorax -0.478361 -1.84563 4.94733
lowerneck -5.31243 1.53093 2.45425
upperneck -7.32945 1.75445 -8.8569
head -1.30189 1.01014 -3.28452
rclavicle -5.725e-014 9.14409e-015
rhumerus -51.5015 17.0791 -87.8256
rradius 42.2289
rwrist 1.86285
rhand -6.98913 -16.0218
rfingers 7.12502
rthumb 18.8813 -45.1254
lclavicle -5.725e-014 9.14409e-015
lhumerus -37.2228 -1.63766 79.6889
lradius 62.9731
lwrist 5.73008
lhand -13.0264 8.03501
lfingers 7.12502
lthumb 13.0678 37.6056
rfemur -20.3948 12.1221 23.4513
rtibia 32.723
rfoot -22.2496 -4.35248
rtoes -7.62456
lfemur -13.1439 -0.117228 -11.6041
ltibia 51.2055
lfoot 0.741686 -25.0911
ltoes 14.4293
24
root -31.2958 17.6031 -21.0166 -108.872 85.5987 -117.536
lowerback 16.5008 -3.71337 1.74995
upperback 7.99819 -3.90108 4.91456
thorax -0.465047 -1.7609 4.8399
lowerneck -5.18555 1.51298 2.63063
upperneck -7.337 1.71491 -9.0895
head -1.32639 0.992203 -3.401
rclavicle -1.72943e-014 2.34566e-014
rhumerus -51.0359 16.886 -87.3741
rradius 41.9342
rwrist 2.1956
rhand -7.05899 -16.1448
rfingers 7.12502
rthumb 18.8141 -45.2549
lclavicle -1.72943e-014 2.34566e-014
lhumerus -37.6504 -1.56112 80.2969
lradius 61.5799
lwrist 5.14951
lhand -13.3695 8.68188
lfingers 7.12502
lthumb 12.737 38.2734
rfemur -19.733 11.9315 24.1723
rtibia 32.9315
rfoot -22.8178 -4.62967
rtoes -7.92281
lfemur -14.2255 0.0638497 -10.8338
ltibia 53.7214
lfoot 2.18186 -25.1622
ltoes 14.263
25
root -31.1689 17.5723 -21.005 -108.91 85.2038 -117.383
lowerback 16.5143 -3.6745 2.29364
upperback 8.04777 -3.7477 5.1558
thorax -0.447826 -1.66631 4.76566
lowerneck -5.08361 1.50393 2.79548
upperneck -7.29096 1.69152 -9.29758
head -1.3285 0.980145 -3.50588
rclavicle -3.1408e-014 7.79236e-014
rhumerus -50.5556 16.7026 -86.9024
rradius 41.6607
rwrist 2.54743
rhand -7.24476 -16.3049
rfingers 7.12502
rthumb 18.6354 -45.4323
lclavicle -3.1408e-014 7.79236e-014
lhumerus -38.1201 -1.49251 80.9293
lradius 60.1187
lwrist 4.46425
lhand -13.6351 9.35068
lfingers 7.12502
lthumb 12.481 38.958
rfemur -19.0742 11.7031 24.8269
rtibia 33.08
rfoot -23.3944 -4.8558
rtoes -8.05003
lfemur -15.3067 0.25685 -10.1517
ltibia 56.1341
lfoot 3.11037 -25.1353
ltoes 13.9686
